<svg width="269" height="38" viewBox="0 0 269 38" fill="none" xmlns="http://www.w3.org/2000/svg">
<path d="M24.8574 8.96289L21.8516 10.2285C21.6172 9.4668 21.3008 8.76953 20.9023 8.13672C20.5156 7.50391 20.0469 6.96484 19.4961 6.51953C18.957 6.0625 18.3418 5.71094 17.6504 5.46484C16.959 5.20703 16.2031 5.07812 15.3828 5.07812C14.5039 5.07812 13.6953 5.22461 12.957 5.51758C12.2305 5.79883 11.5742 6.19141 10.9883 6.69531C10.4141 7.19922 9.91016 7.78516 9.47656 8.45312C9.04297 9.12109 8.67969 9.83594 8.38672 10.5977C8.09375 11.3477 7.87695 12.127 7.73633 12.9355C7.5957 13.7441 7.52539 14.5352 7.52539 15.3086C7.52539 16.5391 7.66602 17.7637 7.94727 18.9824C8.24023 20.2012 8.69727 21.2969 9.31836 22.2695C9.95117 23.2422 10.7656 24.0332 11.7617 24.6426C12.7578 25.2402 13.9648 25.5391 15.3828 25.5391C16.1328 25.5391 16.8418 25.416 17.5098 25.1699C18.1777 24.9121 18.7812 24.5664 19.3203 24.1328C19.8711 23.6875 20.3516 23.166 20.7617 22.5684C21.1719 21.9707 21.5 21.3262 21.7461 20.6348L24.7871 21.8477C24.3418 22.9609 23.7324 23.9395 22.959 24.7832C22.1855 25.6152 21.3008 26.3066 20.3047 26.8574C19.3203 27.4082 18.2598 27.8184 17.123 28.0879C15.998 28.3691 14.8613 28.5098 13.7129 28.5098C12.4707 28.5098 11.2754 28.3574 10.127 28.0527C8.99023 27.748 7.92969 27.3145 6.94531 26.752C5.96094 26.1895 5.06445 25.5098 4.25586 24.7129C3.45898 23.916 2.77344 23.0312 2.19922 22.0586C1.63672 21.0859 1.19727 20.0312 0.880859 18.8945C0.576172 17.7461 0.423828 16.5508 0.423828 15.3086C0.423828 14.0664 0.576172 12.877 0.880859 11.7402C1.19727 10.5918 1.63672 9.53125 2.19922 8.55859C2.77344 7.57422 3.45898 6.68359 4.25586 5.88672C5.06445 5.08984 5.96094 4.41016 6.94531 3.84766C7.92969 3.28516 8.99023 2.85156 10.127 2.54688C11.2754 2.24219 12.4707 2.08984 13.7129 2.08984C14.9082 2.08984 16.0742 2.23047 17.2109 2.51172C18.3594 2.79297 19.4258 3.2207 20.4102 3.79492C21.3945 4.35742 22.2676 5.07227 23.0293 5.93945C23.8027 6.79492 24.4121 7.80273 24.8574 8.96289ZM27.5117 19.3164C27.5117 18.3906 27.5879 17.4297 27.7402 16.4336C27.9043 15.4375 28.1328 14.4414 28.4258 13.4453C28.7305 12.4492 29.0938 11.4648 29.5156 10.4922C29.9375 9.51953 30.4121 8.58789 30.9395 7.69727H35.2812C34.9883 8.57617 34.7246 9.49609 34.4902 10.457C34.2676 11.4062 34.0742 12.3613 33.9102 13.3223C33.7578 14.2715 33.6348 15.2031 33.541 16.1172C33.459 17.0312 33.418 17.8809 33.418 18.666C33.418 19.123 33.4355 19.6152 33.4707 20.1426C33.5176 20.6582 33.5938 21.1797 33.6992 21.707C33.8047 22.2227 33.9512 22.7207 34.1387 23.2012C34.3379 23.6816 34.5898 24.1094 34.8945 24.4844C35.1992 24.8477 35.5684 25.1406 36.002 25.3633C36.4473 25.5742 36.9688 25.6797 37.5664 25.6797C38.1523 25.6797 38.6738 25.5508 39.1309 25.293C39.5996 25.0234 40.0098 24.6777 40.3613 24.2559C40.7129 23.8223 41.0117 23.3301 41.2578 22.7793C41.5039 22.2285 41.7031 21.666 41.8555 21.0918C42.0195 20.5059 42.1367 19.9375 42.207 19.3867C42.2891 18.8242 42.3301 18.3203 42.3301 17.875V7.69727H48.2715V28H45.9863L43.2617 23.2715C42.9219 24.0566 42.5059 24.7715 42.0137 25.416C41.5332 26.0488 40.9824 26.5938 40.3613 27.0508C39.7402 27.5078 39.0488 27.8594 38.2871 28.1055C37.5371 28.3516 36.7227 28.4746 35.8438 28.4746C34.4375 28.4746 33.2129 28.2461 32.1699 27.7891C31.127 27.332 30.2598 26.6992 29.5684 25.8906C28.877 25.082 28.3613 24.1211 28.0215 23.0078C27.6816 21.8828 27.5117 20.6523 27.5117 19.3164ZM70.7012 21.5137C70.7012 22.4043 70.5723 23.1953 70.3145 23.8867C70.0566 24.5781 69.7051 25.1816 69.2598 25.6973C68.8145 26.2012 68.2871 26.6289 67.6777 26.9805C67.0684 27.3203 66.4121 27.5957 65.709 27.8066C65.0176 28.0176 64.291 28.1699 63.5293 28.2637C62.7676 28.3574 62.0117 28.4043 61.2617 28.4043C60.2539 28.4043 59.3633 28.3398 58.5898 28.2109C57.8164 28.082 57.0781 27.877 56.375 27.5957C55.6719 27.3027 54.9688 26.9277 54.2656 26.4707C53.5742 26.0137 52.8008 25.457 51.9453 24.8008L55.4082 21.9707C55.7246 22.5684 56.1406 23.1133 56.6562 23.6055C57.1836 24.0859 57.7285 24.502 58.291 24.8535C58.8535 25.2051 59.3984 25.4746 59.9258 25.6621C60.4531 25.8496 60.8809 25.9434 61.209 25.9434C61.4785 25.9434 61.7832 25.9375 62.123 25.9258C62.4629 25.9023 62.8086 25.8672 63.1602 25.8203C63.5117 25.7617 63.8574 25.6797 64.1973 25.5742C64.5371 25.4688 64.8359 25.3281 65.0938 25.1523C65.3633 24.9648 65.5742 24.7363 65.7266 24.4668C65.8906 24.1855 65.9727 23.8516 65.9727 23.4648C65.9727 23.0664 65.8672 22.7207 65.6562 22.4277C65.457 22.123 65.1934 21.8594 64.8652 21.6367C64.5371 21.4141 64.1621 21.2266 63.7402 21.0742C63.3184 20.9219 62.8906 20.7871 62.457 20.6699C62.0352 20.5527 61.625 20.4531 61.2266 20.3711C60.8281 20.2773 60.4824 20.1895 60.1895 20.1074C59.6504 19.9551 59.082 19.8027 58.4844 19.6504C57.8867 19.4863 57.2949 19.3047 56.709 19.1055C56.123 18.8945 55.5605 18.6484 55.0215 18.3672C54.4941 18.0859 54.0254 17.752 53.6152 17.3652C53.2168 16.9668 52.8945 16.5039 52.6484 15.9766C52.4141 15.4375 52.2969 14.8105 52.2969 14.0957C52.2969 12.7832 52.5547 11.6875 53.0703 10.8086C53.5977 9.91797 54.2891 9.20898 55.1445 8.68164C56 8.14258 56.9727 7.76172 58.0625 7.53906C59.1523 7.31641 60.2598 7.20508 61.3848 7.20508C62.1582 7.20508 62.9727 7.28711 63.8281 7.45117C64.6836 7.60352 65.5156 7.83789 66.3242 8.1543C67.1328 8.45898 67.8887 8.83398 68.5918 9.2793C69.2949 9.72461 69.8809 10.2344 70.3496 10.8086L66.8867 13.6562C66.6289 12.9531 66.2891 12.3496 65.8672 11.8457C65.457 11.3418 65.0059 10.9316 64.5137 10.6152C64.0332 10.2871 63.5352 10.0469 63.0195 9.89453C62.5156 9.74219 62.0469 9.66602 61.6133 9.66602C61.1914 9.66602 60.7168 9.68359 60.1895 9.71875C59.6621 9.75391 59.1641 9.85352 58.6953 10.0176C58.2383 10.1816 57.8457 10.4336 57.5176 10.7734C57.2012 11.1016 57.043 11.5586 57.043 12.1445C57.043 12.5664 57.1367 12.9297 57.3242 13.2344C57.5234 13.5273 57.7812 13.7852 58.0977 14.0078C58.4141 14.2188 58.7715 14.4004 59.1699 14.5527C59.5801 14.6934 59.9961 14.8223 60.418 14.9395C60.8398 15.0449 61.25 15.1387 61.6484 15.2207C62.0469 15.3027 62.4043 15.3906 62.7207 15.4844C63.2598 15.6367 63.8281 15.7949 64.4258 15.959C65.0352 16.1113 65.6328 16.293 66.2188 16.5039C66.8047 16.7031 67.3672 16.9434 67.9062 17.2246C68.457 17.4941 68.9375 17.8281 69.3477 18.2266C69.7578 18.625 70.0859 19.0938 70.332 19.6328C70.5781 20.1602 70.7012 20.7871 70.7012 21.5137ZM82.1094 28H76.1504V10.0527H72.459V7.69727H76.1504V0.226562H82.1094V7.69727H88.2617V10.0527H82.1094V28ZM111.553 17.8047C111.553 18.8594 111.412 19.8496 111.131 20.7754C110.85 21.7012 110.457 22.5566 109.953 23.3418C109.461 24.127 108.863 24.8359 108.16 25.4688C107.457 26.0898 106.684 26.6172 105.84 27.0508C105.008 27.4844 104.111 27.8184 103.15 28.0527C102.201 28.2871 101.223 28.4043 100.215 28.4043C99.207 28.4043 98.2285 28.2871 97.2793 28.0527C96.3301 27.8184 95.4336 27.4844 94.5898 27.0508C93.7578 26.6172 92.9902 26.0898 92.2871 25.4688C91.584 24.8359 90.9805 24.127 90.4766 23.3418C89.9844 22.5566 89.5977 21.7012 89.3164 20.7754C89.0352 19.8379 88.8945 18.8477 88.8945 17.8047C88.8945 16.7617 89.0352 15.7773 89.3164 14.8516C89.5977 13.9141 89.9844 13.0527 90.4766 12.2676C90.9805 11.4824 91.584 10.7793 92.2871 10.1582C92.9902 9.52539 93.7578 8.99219 94.5898 8.55859C95.4336 8.125 96.3301 7.79102 97.2793 7.55664C98.2285 7.32227 99.207 7.20508 100.215 7.20508C101.223 7.20508 102.201 7.32227 103.15 7.55664C104.111 7.79102 105.008 8.125 105.84 8.55859C106.684 8.99219 107.457 9.52539 108.16 10.1582C108.863 10.7793 109.461 11.4824 109.953 12.2676C110.457 13.0527 110.85 13.9141 111.131 14.8516C111.412 15.7773 111.553 16.7617 111.553 17.8047ZM105.506 17.8047C105.506 17.2422 105.471 16.6504 105.4 16.0293C105.342 15.3965 105.236 14.7812 105.084 14.1836C104.932 13.5742 104.721 12.9941 104.451 12.4434C104.193 11.8809 103.871 11.3945 103.484 10.9844C103.098 10.5625 102.635 10.2285 102.096 9.98242C101.557 9.72461 100.93 9.5957 100.215 9.5957C99.5352 9.5957 98.9316 9.72461 98.4043 9.98242C97.877 10.2402 97.4141 10.5859 97.0156 11.0195C96.6289 11.4414 96.3008 11.9336 96.0312 12.4961C95.7734 13.0586 95.5625 13.6445 95.3984 14.2539C95.2344 14.8516 95.1172 15.4609 95.0469 16.082C94.9766 16.6914 94.9414 17.2656 94.9414 17.8047C94.9414 18.3438 94.9766 18.9238 95.0469 19.5449C95.1172 20.1543 95.2344 20.7637 95.3984 21.373C95.5625 21.9824 95.7734 22.5684 96.0312 23.1309C96.3008 23.6816 96.6289 24.1738 97.0156 24.6074C97.4141 25.0293 97.877 25.3691 98.4043 25.627C98.9316 25.8848 99.5352 26.0137 100.215 26.0137C100.918 26.0137 101.539 25.8906 102.078 25.6445C102.617 25.3867 103.08 25.0469 103.467 24.625C103.865 24.2031 104.193 23.7168 104.451 23.166C104.709 22.6152 104.914 22.0352 105.066 21.4258C105.23 20.8164 105.342 20.2012 105.4 19.5801C105.471 18.959 105.506 18.3672 105.506 17.8047ZM146.727 16.1523C146.727 17.5469 146.562 19 146.234 20.5117C145.906 22.0234 145.443 23.5 144.846 24.9414C144.26 26.3711 143.551 27.7246 142.719 29.002C141.887 30.2793 140.961 31.3867 139.941 32.3242L137.709 31.1113C138.049 30.502 138.359 29.8164 138.641 29.0547C138.922 28.293 139.18 27.4902 139.414 26.6465C139.648 25.8027 139.854 24.9355 140.029 24.0449C140.205 23.1543 140.352 22.2695 140.469 21.3906C140.598 20.5 140.691 19.6387 140.75 18.8066C140.809 17.9746 140.838 17.1953 140.838 16.4688C140.838 16.0586 140.826 15.6133 140.803 15.1328C140.779 14.6523 140.727 14.1719 140.645 13.6914C140.574 13.2109 140.463 12.7539 140.311 12.3203C140.158 11.875 139.947 11.4824 139.678 11.1426C139.42 10.791 139.092 10.5156 138.693 10.3164C138.307 10.1055 137.838 10 137.287 10C136.748 10 136.285 10.1465 135.898 10.4395C135.523 10.7207 135.201 11.0898 134.932 11.5469C134.662 12.0039 134.445 12.5195 134.281 13.0938C134.129 13.668 134.012 14.248 133.93 14.834C133.848 15.4082 133.789 15.959 133.754 16.4863C133.73 17.0137 133.719 17.459 133.719 17.8223V28H127.795V18.543C127.795 18.1328 127.801 17.6406 127.812 17.0664C127.824 16.4805 127.807 15.8711 127.76 15.2383C127.725 14.6055 127.648 13.9785 127.531 13.3574C127.426 12.7246 127.25 12.1621 127.004 11.6699C126.77 11.1777 126.447 10.7793 126.037 10.4746C125.627 10.1582 125.111 10 124.49 10C123.963 10 123.518 10.1465 123.154 10.4395C122.803 10.7324 122.504 11.1133 122.258 11.582C122.023 12.0391 121.836 12.5605 121.695 13.1465C121.566 13.7207 121.467 14.3008 121.396 14.8867C121.338 15.4609 121.303 16.0117 121.291 16.5391C121.279 17.0547 121.273 17.4824 121.273 17.8223V28H115.314V7.69727H117.6L119.779 12.4258C120.271 10.7852 121.045 9.50781 122.1 8.59375C123.166 7.66797 124.578 7.20508 126.336 7.20508C127.918 7.20508 129.23 7.5332 130.273 8.18945C131.316 8.8457 132.137 9.91211 132.734 11.3887C133.074 10.7441 133.449 10.1641 133.859 9.64844C134.281 9.13281 134.744 8.69336 135.248 8.33008C135.764 7.9668 136.332 7.69141 136.953 7.50391C137.574 7.30469 138.26 7.20508 139.01 7.20508C140.393 7.20508 141.57 7.43359 142.543 7.89062C143.527 8.33594 144.33 8.95703 144.951 9.75391C145.572 10.5508 146.023 11.5 146.305 12.6016C146.586 13.6914 146.727 14.875 146.727 16.1523ZM164.182 28H157.801L148.344 2.6875H155.463L162.477 23.0605L168.822 2.6875H173.146L164.182 28ZM195.506 17.8047C195.506 18.8594 195.365 19.8496 195.084 20.7754C194.803 21.7012 194.41 22.5566 193.906 23.3418C193.414 24.127 192.816 24.8359 192.113 25.4688C191.41 26.0898 190.637 26.6172 189.793 27.0508C188.961 27.4844 188.064 27.8184 187.104 28.0527C186.154 28.2871 185.176 28.4043 184.168 28.4043C183.16 28.4043 182.182 28.2871 181.232 28.0527C180.283 27.8184 179.387 27.4844 178.543 27.0508C177.711 26.6172 176.943 26.0898 176.24 25.4688C175.537 24.8359 174.934 24.127 174.43 23.3418C173.938 22.5566 173.551 21.7012 173.27 20.7754C172.988 19.8379 172.848 18.8477 172.848 17.8047C172.848 16.7617 172.988 15.7773 173.27 14.8516C173.551 13.9141 173.938 13.0527 174.43 12.2676C174.934 11.4824 175.537 10.7793 176.24 10.1582C176.943 9.52539 177.711 8.99219 178.543 8.55859C179.387 8.125 180.283 7.79102 181.232 7.55664C182.182 7.32227 183.16 7.20508 184.168 7.20508C185.176 7.20508 186.154 7.32227 187.104 7.55664C188.064 7.79102 188.961 8.125 189.793 8.55859C190.637 8.99219 191.41 9.52539 192.113 10.1582C192.816 10.7793 193.414 11.4824 193.906 12.2676C194.41 13.0527 194.803 13.9141 195.084 14.8516C195.365 15.7773 195.506 16.7617 195.506 17.8047ZM189.459 17.8047C189.459 17.2422 189.424 16.6504 189.354 16.0293C189.295 15.3965 189.189 14.7812 189.037 14.1836C188.885 13.5742 188.674 12.9941 188.404 12.4434C188.146 11.8809 187.824 11.3945 187.438 10.9844C187.051 10.5625 186.588 10.2285 186.049 9.98242C185.51 9.72461 184.883 9.5957 184.168 9.5957C183.488 9.5957 182.885 9.72461 182.357 9.98242C181.83 10.2402 181.367 10.5859 180.969 11.0195C180.582 11.4414 180.254 11.9336 179.984 12.4961C179.727 13.0586 179.516 13.6445 179.352 14.2539C179.188 14.8516 179.07 15.4609 179 16.082C178.93 16.6914 178.895 17.2656 178.895 17.8047C178.895 18.3438 178.93 18.9238 179 19.5449C179.07 20.1543 179.188 20.7637 179.352 21.373C179.516 21.9824 179.727 22.5684 179.984 23.1309C180.254 23.6816 180.582 24.1738 180.969 24.6074C181.367 25.0293 181.83 25.3691 182.357 25.627C182.885 25.8848 183.488 26.0137 184.168 26.0137C184.871 26.0137 185.492 25.8906 186.031 25.6445C186.57 25.3867 187.033 25.0469 187.42 24.625C187.818 24.2031 188.146 23.7168 188.404 23.166C188.662 22.6152 188.867 22.0352 189.02 21.4258C189.184 20.8164 189.295 20.2012 189.354 19.5801C189.424 18.959 189.459 18.3672 189.459 17.8047ZM219.711 25.5566C219.711 27.1738 219.471 28.6973 218.99 30.127C218.51 31.5566 217.812 32.8047 216.898 33.8711C215.984 34.9492 214.859 35.7988 213.523 36.4199C212.199 37.0527 210.688 37.3691 208.988 37.3691C208.051 37.3691 207.102 37.2637 206.141 37.0527C205.191 36.8418 204.289 36.5137 203.434 36.0684C202.59 35.6348 201.828 35.0781 201.148 34.3984C200.48 33.7305 199.953 32.9395 199.566 32.0254L202.133 31.0586C202.355 31.6328 202.643 32.1602 202.994 32.6406C203.357 33.1211 203.773 33.5312 204.242 33.8711C204.711 34.2227 205.227 34.4922 205.789 34.6797C206.352 34.8789 206.943 34.9785 207.564 34.9785C208.736 34.9785 209.715 34.7383 210.5 34.2578C211.297 33.7773 211.936 33.1504 212.416 32.377C212.896 31.6035 213.242 30.7246 213.453 29.7402C213.664 28.7676 213.77 27.7773 213.77 26.7695V25.5742C213.066 26.5352 212.217 27.25 211.221 27.7188C210.236 28.1758 209.152 28.4043 207.969 28.4043C206.422 28.4043 205.039 28.1289 203.82 27.5781C202.602 27.0273 201.57 26.2773 200.727 25.3281C199.883 24.3672 199.238 23.2422 198.793 21.9531C198.348 20.6641 198.125 19.2812 198.125 17.8047C198.125 16.3281 198.348 14.9453 198.793 13.6562C199.238 12.3672 199.883 11.248 200.727 10.2988C201.57 9.33789 202.602 8.58203 203.82 8.03125C205.039 7.48047 206.422 7.20508 207.969 7.20508C208.754 7.20508 209.498 7.32227 210.201 7.55664C210.916 7.79102 211.566 8.125 212.152 8.55859C212.75 8.98047 213.271 9.49609 213.717 10.1055C214.174 10.7031 214.531 11.3711 214.789 12.1094L217.426 7.69727H219.711V25.5566ZM213.734 17.8047C213.734 17.2773 213.705 16.7207 213.646 16.1348C213.6 15.5488 213.512 14.9688 213.383 14.3945C213.254 13.8203 213.072 13.2754 212.838 12.7598C212.615 12.2324 212.322 11.7695 211.959 11.3711C211.607 10.9609 211.18 10.6387 210.676 10.4043C210.172 10.1699 209.586 10.0527 208.918 10.0527C208.25 10.0527 207.67 10.1758 207.178 10.4219C206.686 10.6562 206.264 10.9785 205.912 11.3887C205.561 11.7871 205.268 12.25 205.033 12.7773C204.811 13.3047 204.635 13.8555 204.506 14.4297C204.377 15.0039 204.283 15.584 204.225 16.1699C204.178 16.7441 204.154 17.2891 204.154 17.8047C204.154 18.3203 204.178 18.8711 204.225 19.457C204.283 20.043 204.377 20.623 204.506 21.1973C204.635 21.7715 204.811 22.3223 205.033 22.8496C205.268 23.377 205.561 23.8457 205.912 24.2559C206.264 24.6543 206.686 24.9766 207.178 25.2227C207.67 25.457 208.25 25.5742 208.918 25.5742C209.527 25.5742 210.066 25.4512 210.535 25.2051C211.016 24.9473 211.432 24.6074 211.783 24.1855C212.146 23.7637 212.451 23.2832 212.697 22.7441C212.943 22.2051 213.143 21.6484 213.295 21.0742C213.447 20.5 213.559 19.9316 213.629 19.3691C213.699 18.7949 213.734 18.2734 213.734 17.8047ZM223.648 19.3164C223.648 18.3906 223.725 17.4297 223.877 16.4336C224.041 15.4375 224.27 14.4414 224.562 13.4453C224.867 12.4492 225.23 11.4648 225.652 10.4922C226.074 9.51953 226.549 8.58789 227.076 7.69727H231.418C231.125 8.57617 230.861 9.49609 230.627 10.457C230.404 11.4062 230.211 12.3613 230.047 13.3223C229.895 14.2715 229.771 15.2031 229.678 16.1172C229.596 17.0312 229.555 17.8809 229.555 18.666C229.555 19.123 229.572 19.6152 229.607 20.1426C229.654 20.6582 229.73 21.1797 229.836 21.707C229.941 22.2227 230.088 22.7207 230.275 23.2012C230.475 23.6816 230.727 24.1094 231.031 24.4844C231.336 24.8477 231.705 25.1406 232.139 25.3633C232.584 25.5742 233.105 25.6797 233.703 25.6797C234.289 25.6797 234.811 25.5508 235.268 25.293C235.736 25.0234 236.146 24.6777 236.498 24.2559C236.85 23.8223 237.148 23.3301 237.395 22.7793C237.641 22.2285 237.84 21.666 237.992 21.0918C238.156 20.5059 238.273 19.9375 238.344 19.3867C238.426 18.8242 238.467 18.3203 238.467 17.875V7.69727H244.408V28H242.123L239.398 23.2715C239.059 24.0566 238.643 24.7715 238.15 25.416C237.67 26.0488 237.119 26.5938 236.498 27.0508C235.877 27.5078 235.186 27.8594 234.424 28.1055C233.674 28.3516 232.859 28.4746 231.98 28.4746C230.574 28.4746 229.35 28.2461 228.307 27.7891C227.264 27.332 226.396 26.6992 225.705 25.8906C225.014 25.082 224.498 24.1211 224.158 23.0078C223.818 21.8828 223.648 20.6523 223.648 19.3164ZM254.252 18.3672C254.979 18.5312 255.705 18.6602 256.432 18.7539C257.158 18.8477 257.891 18.8945 258.629 18.8945C259.402 18.8945 260.117 18.8242 260.773 18.6836C261.441 18.5312 262.016 18.2852 262.496 17.9453C262.988 17.5938 263.375 17.1309 263.656 16.5566C263.938 15.9824 264.078 15.2676 264.078 14.4121C264.078 13.7207 263.984 13.0879 263.797 12.5137C263.609 11.9395 263.328 11.4473 262.953 11.0371C262.59 10.627 262.139 10.3105 261.6 10.0879C261.061 9.85352 260.434 9.73633 259.719 9.73633C259.051 9.73633 258.447 9.85938 257.908 10.1055C257.381 10.3516 256.912 10.6855 256.502 11.1074C256.104 11.5176 255.758 11.998 255.465 12.5488C255.184 13.0996 254.949 13.6738 254.762 14.2715C254.574 14.8691 254.439 15.4727 254.357 16.082C254.275 16.6914 254.234 17.2656 254.234 17.8047C254.234 17.8984 254.234 17.9922 254.234 18.0859C254.234 18.1797 254.24 18.2734 254.252 18.3672ZM268.895 14.3594C268.895 15.1914 268.76 15.9355 268.49 16.5918C268.221 17.2363 267.852 17.8047 267.383 18.2969C266.926 18.7891 266.393 19.2051 265.783 19.5449C265.174 19.8848 264.523 20.166 263.832 20.3887C263.141 20.5996 262.426 20.752 261.688 20.8457C260.961 20.9395 260.252 20.9863 259.561 20.9863C258.682 20.9863 257.814 20.9277 256.959 20.8105C256.104 20.6816 255.26 20.4824 254.428 20.2129C254.557 20.9863 254.762 21.7246 255.043 22.4277C255.324 23.1191 255.699 23.7285 256.168 24.2559C256.637 24.7715 257.211 25.1816 257.891 25.4863C258.582 25.791 259.396 25.9434 260.334 25.9434C260.955 25.9434 261.547 25.8496 262.109 25.6621C262.672 25.4746 263.188 25.2109 263.656 24.8711C264.125 24.5312 264.535 24.127 264.887 23.6582C265.25 23.1895 265.543 22.668 265.766 22.0938L268.332 23.043C267.945 23.9688 267.412 24.7715 266.732 25.4512C266.064 26.1191 265.303 26.6758 264.447 27.1211C263.604 27.5547 262.701 27.877 261.74 28.0879C260.791 28.2988 259.848 28.4043 258.91 28.4043C257.363 28.4043 255.934 28.1465 254.621 27.6309C253.309 27.1035 252.178 26.3711 251.229 25.4336C250.279 24.4961 249.535 23.377 248.996 22.0762C248.457 20.7754 248.188 19.3516 248.188 17.8047C248.188 16.2578 248.457 14.834 248.996 13.5332C249.535 12.2324 250.279 11.1133 251.229 10.1758C252.178 9.23828 253.309 8.51172 254.621 7.99609C255.934 7.46875 257.363 7.20508 258.91 7.20508C259.66 7.20508 260.428 7.25781 261.213 7.36328C261.998 7.46875 262.76 7.63867 263.498 7.87305C264.236 8.0957 264.934 8.38867 265.59 8.75195C266.246 9.11523 266.814 9.56641 267.295 10.1055C267.787 10.6328 268.174 11.248 268.455 11.9512C268.748 12.6543 268.895 13.457 268.895 14.3594Z" fill="#3BD9EB"/>
</svg>
